<svg width="24" height="22" viewBox="0 0 24 22" fill="none" xmlns="http://www.w3.org/2000/svg">
<rect width="24" height="22" fill="black" fill-opacity="0"/>
<path d="M22 9C20.879 9 20 9.879 20 11C20 12.121 20.879 13 22 13C23.121 13 24 12.121 24 11C24 9.879 23.121 9 22 9ZM18 14C16.879 14 16 14.879 16 16C16 17.121 16.879 18 18 18C19.121 18 20 17.121 20 16C20 14.879 19.121 14 18 14ZM14 18C12.879 18 12 18.879 12 20C12 21.121 12.879 22 14 22C15.121 22 16 21.121 16 20C16 18.879 15.121 18 14 18ZM18 8C19.121 8 20 7.121 20 6C20 4.879 19.121 4 18 4C16.879 4 16 4.879 16 6C16 7.121 16.879 8 18 8ZM14 4C15.121 4 16 3.121 16 2C16 0.879 15.121 0 14 0C12.879 0 12 0.879 12 2C12 3.121 12.879 4 14 4ZM2 9C0.879 9 0 9.879 0 11C0 12.121 0.879 13 2 13C3.121 13 4 12.121 4 11C4 9.879 3.121 9 2 9ZM7 9C5.879 9 5 9.879 5 11C5 12.121 5.879 13 7 13C8.121 13 9 12.121 9 11C9 9.879 8.121 9 7 9ZM14 11C14 9.879 13.121 9 12 9C10.879 9 10 9.879 10 11C10 12.121 10.879 13 12 13C13.121 13 14 12.121 14 11ZM15 11C15 12.121 15.879 13 17 13C18.121 13 19 12.121 19 11C19 9.879 18.121 9 17 9C15.879 9 15 9.879 15 11Z" fill="#CD4428"/>
</svg>
