<svg width="24" height="12" viewBox="0 0 24 12" fill="none" xmlns="http://www.w3.org/2000/svg">
<path d="M22.9988 5.00025H3.41275L6.70575 1.70725C7.09675 1.31625 7.09675 0.68425 6.70575 0.29325C6.31475 -0.0977498 5.68275 -0.0977498 5.29175 0.29325L0.291752 5.29325C-0.0952481 5.67925 -0.0992481 6.31725 0.291752 6.70825L5.29175 11.7073C5.48675 11.9023 5.74275 12.0002 5.99875 12.0002C6.25475 12.0002 6.51075 11.9023 6.70575 11.7073C7.09675 11.3163 7.09675 10.6842 6.70575 10.2932L3.41275 7.00025H22.9988C23.5508 7.00025 23.9988 6.55325 23.9988 6.00025C23.9988 5.44825 23.5508 5.00025 22.9988 5.00025Z" fill="black"/>
</svg>
