<svg width="24" height="12" viewBox="0 0 24 12" fill="none" xmlns="http://www.w3.org/2000/svg">
<path d="M1.00003 6.99975L20.586 6.99975L17.293 10.2928C16.902 10.6838 16.902 11.3157 17.293 11.7067C17.684 12.0977 18.316 12.0977 18.707 11.7067L23.707 6.70675C24.094 6.32075 24.098 5.68275 23.707 5.29175L18.707 0.292749C18.512 0.0977497 18.256 -0.000249863 18 -0.000249863C17.744 -0.000249863 17.488 0.0977497 17.293 0.292749C16.902 0.683749 16.902 1.31575 17.293 1.70675L20.586 4.99975L1.00003 4.99975C0.448027 4.99975 2.67029e-05 5.44675 2.67029e-05 5.99975C2.67029e-05 6.55175 0.448027 6.99975 1.00003 6.99975Z" fill="black"/>
</svg>
