<svg width="36" height="22" viewBox="0 0 36 22" fill="none" xmlns="http://www.w3.org/2000/svg">
<rect width="36" height="21.1677" fill="black" fill-opacity="0"/>
<path d="M35.5692 17.893C34.8222 16.5309 33.2305 14.9138 31.948 13.7242C30.0068 11.9241 30.0068 11.9241 31.909 9.4639L33.0955 7.9113C36.0507 3.97503 36.1737 2.67445 35.9052 1.91989C35.7327 1.44886 35.2347 0.884825 33.8246 0.884825C33.8246 0.884825 34.1081 0.902826 28.0552 0.932828C27.8167 0.932828 27.4642 0.973331 27.1401 1.16534C26.6856 1.43836 26.4336 1.9514 26.3661 2.10141C25.436 4.58107 22.8828 9.16388 21.8748 9.60191C21.4758 9.14138 21.5988 7.28576 21.6813 6.03617C21.8433 3.5715 22.0278 0.778318 19.9351 0.275784C18.459 -0.0827405 14.1478 -0.180247 12.7017 0.530801C12.1121 0.82032 11.3306 1.53737 11.4431 2.22141L11.6156 2.84546L12.1706 2.91596C12.5321 2.96247 12.9912 3.10947 13.1922 3.38399C13.7007 4.12954 13.8102 8.99437 13.3062 9.64392C12.3686 9.54341 9.82297 5.0311 8.72039 2.24692C8.68289 2.15091 8.46688 1.65438 8.04085 1.34236C7.59082 1.01083 7.03578 0.904326 6.79726 0.874324L1.85143 0.907326C1.59791 0.914827 0.738354 0.979331 0.286824 1.51787C-0.21271 2.10891 0.0753093 2.97597 0.154815 3.18298C0.315325 3.5445 4.11808 12.0831 8.52838 16.6764C12.2966 20.5992 16.0319 20.4896 18.8026 20.5136C20.6897 20.5136 20.9282 20.4266 21.1787 20.1551C21.6993 19.5971 21.7383 18.7945 21.7728 18.085C21.8253 17.0109 21.9168 16.6539 22.3893 16.5054C22.7553 16.5054 23.6674 17.5614 24.2119 18.193C24.8855 18.973 25.583 19.7801 26.3466 20.3036C27.4417 21.0552 28.3792 21.1677 28.8427 21.1677C28.8427 21.1677 28.6027 21.1602 33.7181 21.0987C33.8771 21.0897 35.2887 20.9757 35.8137 19.9766C36.0297 19.5686 36.1632 18.883 35.5692 17.893Z" fill="white"/>
</svg>
