<svg width="33" height="33" viewBox="0 0 33 33" fill="none" xmlns="http://www.w3.org/2000/svg">
<rect width="33" height="33" fill="black" fill-opacity="0"/>
<rect width="33" height="33" fill="black" fill-opacity="0"/>
<path d="M16.5 7.5C11.5365 7.5 7.5 11.5365 7.5 16.5C7.5 21.465 11.5365 25.5 16.5 25.5C21.4635 25.5 25.5 21.465 25.5 16.5C25.5 11.5365 21.4635 7.5 16.5 7.5ZM4.5 0.0765C3.969 0.153 3.468 0.303 3 0.528V11.25H4.5V0.0765ZM7.5 11.133V0H6V11.25H7.4205L7.5 11.133ZM33 26.772V5.25C33 2.355 30.645 0 27.75 0H9V9.1785C10.9065 7.2225 13.56 6 16.5 6C20.376 6 23.76 8.1165 25.5795 11.25H31.5V26.772C31.5 29.379 29.379 31.5 26.772 31.5H6.228C3.621 31.5 1.5 29.379 1.5 26.772V1.587C0.5745 2.535 0 3.825 0 5.25V26.772C0 30.2055 2.7945 33 6.228 33H26.7705C30.2055 33 33 30.2055 33 26.772ZM30.75 9H26.25C25.836 9 25.5 8.664 25.5 8.25V3.75C25.5 3.336 25.836 3 26.25 3H30.75C31.164 3 31.5 3.336 31.5 3.75V8.25C31.5 8.664 31.164 9 30.75 9Z" fill="white"/>
</svg>
