<svg width="32" height="32" viewBox="0 0 32 32" fill="none" xmlns="http://www.w3.org/2000/svg">
<rect width="32" height="32" fill="black" fill-opacity="0"/>
<path d="M19.3333 4H4.66667C4.29867 4 4 4.29867 4 4.66667C4 5.03467 4.29867 5.33333 4.66667 5.33333H19.3333C19.7013 5.33333 20 5.03467 20 4.66667C20 4.29867 19.7013 4 19.3333 4ZM4.66667 17.3333H11.3333C11.7013 17.3333 12 17.0347 12 16.6667V8.66667C12 8.29867 11.7013 8 11.3333 8H4.66667C4.29867 8 4 8.29867 4 8.66667V16.6667C4 17.0347 4.29867 17.3333 4.66667 17.3333ZM5.33333 9.33333H10.6667V16H5.33333V9.33333ZM19.3333 10.6667H15.3333C14.9653 10.6667 14.6667 10.9653 14.6667 11.3333C14.6667 11.7013 14.9653 12 15.3333 12H19.3333C19.7013 12 20 11.7013 20 11.3333C20 10.9653 19.7013 10.6667 19.3333 10.6667ZM19.3333 13.3333H14C13.632 13.3333 13.3333 13.632 13.3333 14C13.3333 14.368 13.632 14.6667 14 14.6667H19.3333C19.7013 14.6667 20 14.368 20 14C20 13.632 19.7013 13.3333 19.3333 13.3333ZM19.3333 16H14C13.632 16 13.3333 16.2987 13.3333 16.6667C13.3333 17.0347 13.632 17.3333 14 17.3333H19.3333C19.7013 17.3333 20 17.0347 20 16.6667C20 16.2987 19.7013 16 19.3333 16ZM19.3333 18.6667H4.66667C4.29867 18.6667 4 18.9653 4 19.3333C4 19.7013 4.29867 20 4.66667 20H19.3333C19.7013 20 20 19.7013 20 19.3333C20 18.9653 19.7013 18.6667 19.3333 18.6667ZM19.3333 21.3333H4.66667C4.29867 21.3333 4 21.632 4 22C4 22.368 4.29867 22.6667 4.66667 22.6667H19.3333C19.7013 22.6667 20 22.368 20 22C20 21.632 19.7013 21.3333 19.3333 21.3333ZM19.3333 24H4.66667C4.29867 24 4 24.2987 4 24.6667C4 25.0347 4.29867 25.3333 4.66667 25.3333H19.3333C19.7013 25.3333 20 25.0347 20 24.6667C20 24.2987 19.7013 24 19.3333 24ZM31.3333 4H26.6667V2.66667C26.6667 2.29867 26.368 2 26 2H24V0.666667C24 0.298667 23.7013 0 23.3333 0H0.666667C0.298667 0 0 0.298667 0 0.666667V27.3333C0 29.9067 2.09333 32 4.66667 32H27.3333C29.9067 32 32 29.9067 32 27.3333V4.66667C32 4.29867 31.7013 4 31.3333 4ZM26.6667 8H28V27.3333C28 27.7013 27.7 28 27.3333 28C26.9667 28 26.6667 27.7013 26.6667 27.3333V8ZM4.66667 30.6667C2.828 30.6667 1.33333 29.1707 1.33333 27.3333V1.33333H22.6667V27.3333C22.6667 28.6387 23.204 29.8187 24.0707 30.6667H4.66667ZM30.6667 27.3333C30.6667 29.1707 29.172 30.6667 27.3333 30.6667C25.4947 30.6667 24 29.1707 24 27.3333V3.33333H25.3333V27.3333C25.3333 28.436 26.2307 29.3333 27.3333 29.3333C28.436 29.3333 29.3333 28.436 29.3333 27.3333V7.33333C29.3333 6.96533 29.0347 6.66667 28.6667 6.66667H26.6667V5.33333H30.6667V27.3333Z" fill="black"/>
</svg>
