<svg width="76" height="25" viewBox="0 0 76 25" fill="none" xmlns="http://www.w3.org/2000/svg">
<rect width="76" height="23" fill="black" fill-opacity="0" transform="translate(0 1)"/>
<path d="M76 1C66.4816 1 66.4816 4.83333 57.0122 4.83333C47.4938 4.83333 47.4938 1 38.0245 1C28.5061 1 28.5061 4.83333 19.0368 4.83333C9.51838 4.83333 9.51838 1 0.0490417 1" stroke="black" stroke-miterlimit="10"/>
<path d="M0 5.79163C9.5184 5.79163 9.5184 9.62496 18.9877 9.62496C28.5061 9.62496 28.5061 5.79163 37.9755 5.79163C47.4939 5.79163 47.4939 9.62496 56.9632 9.62496C66.4816 9.62496 66.4816 5.79163 75.9509 5.79163" stroke="black" stroke-miterlimit="10"/>
<path d="M0 10.5834C9.5184 10.5834 9.5184 14.4167 18.9877 14.4167C28.5061 14.4167 28.5061 10.5834 37.9755 10.5834C47.4939 10.5834 47.4939 14.4167 56.9632 14.4167C66.4816 14.4167 66.4816 10.5834 75.9509 10.5834" stroke="black" stroke-miterlimit="10"/>
<path d="M0 15.375C9.5184 15.375 9.5184 19.2083 18.9877 19.2083C28.5061 19.2083 28.5061 15.375 37.9755 15.375C47.4939 15.375 47.4939 19.2083 56.9632 19.2083C66.4816 19.2083 66.4816 15.375 75.9509 15.375" stroke="black" stroke-miterlimit="10"/>
<path d="M0 20.1666C9.5184 20.1666 9.5184 24 18.9877 24C28.5061 24 28.5061 20.1666 37.9755 20.1666C47.4939 20.1666 47.4939 24 56.9632 24C66.4816 24 66.4816 20.1666 75.9509 20.1666" stroke="black" stroke-miterlimit="10"/>
</svg>
